<svg version="1.1" xmlns="http://www.w3.org/2000/svg" xmlns:xlink="http://www.w3.org/1999/xlink" width="109.672" height="57.343" viewBox="0,0,109.672,57.343"><defs><linearGradient x1="154.35184" y1="649.97332" x2="154.35184" y2="695.14112" gradientUnits="userSpaceOnUse" id="color-1"><stop offset="0" stop-color="#ee2a7b"/><stop offset="1" stop-color="#811150"/></linearGradient><linearGradient x1="445.64819" y1="649.97332" x2="445.64819" y2="695.14112" gradientUnits="userSpaceOnUse" id="color-2"><stop offset="0" stop-color="#ee2a7b"/><stop offset="1" stop-color="#811150"/></linearGradient></defs><g transform="translate(-245.164,-171.32851)"><g data-paper-data="{&quot;isPaintingLayer&quot;:true}" fill-rule="nonzero" stroke-linecap="butt" stroke-linejoin="miter" stroke-miterlimit="10" stroke-dasharray="" stroke-dashoffset="0" style="mix-blend-mode: normal"><path d="M354.086,178.13751v43.72616c0,3.34057 -2.9905,6.05784 -6.67111,6.05784h-94.83106c-3.67676,0 -6.66983,-2.71727 -6.66983,-6.05784v-43.72732c0,-3.34057 2.99307,-6.05784 6.66983,-6.05784h94.83106c3.68061,0 6.67111,2.71844 6.67111,6.05901z" fill="#d1d2d3" stroke="#ee2a7b" stroke-width="1.5"/><path d="M283.43863,214.15472c1.9287,1.9268 1.9287,5.054 0,6.9823c-1.9278,1.9296 -5.0541,1.9296 -6.9837,0c-7.6132,-7.6133 -17.5745,-17.575 -17.5745,-17.575c-1.9282,-1.9278 -1.9282,-5.0545 0,-6.9832c0,0 11.543,-11.5443 17.7163,-17.7167c1.9282,-1.9287 5.0541,-1.9282 6.9837,0c1.9286,1.9282 1.9286,5.0545 0,6.9832c-7.6133,7.6128 -9.2636,9.2829 -9.2636,9.2829c0,0 24.5814,0.0102 33.3107,0.0102c2.7274,0 4.9382,2.2104 4.9382,4.9378c0,2.7269 -2.2108,4.9382 -4.9382,4.9382c-10.412,0 -33.3375,-0.0097 -33.3375,-0.0097c0,0 2.9752,2.9748 9.1486,9.15z" fill="url(#color-1)" stroke="none" stroke-width="0"/><path d="M325.70998,205.00472c0,0 -22.9255,0.0097 -33.3375,0.0097c-2.7274,0 -4.9382,-2.2113 -4.9382,-4.9382c0,-2.7274 2.2108,-4.9378 4.9382,-4.9378c8.7293,0 33.3107,-0.0102 33.3107,-0.0102c0,0 -1.6503,-1.6701 -9.2636,-9.2829c-1.9286,-1.9287 -1.9286,-5.055 0,-6.9832c1.9296,-1.9282 5.0555,-1.9287 6.9837,0c6.1733,6.1724 17.7163,17.7167 17.7163,17.7167c1.9282,1.9287 1.9282,5.0554 0,6.9832c0,0 -9.9613,9.9617 -17.5745,17.575c-1.9296,1.9296 -5.0559,1.9296 -6.9837,0c-1.9287,-1.9283 -1.9287,-5.0555 0,-6.9823c6.1734,-6.1752 9.1486,-9.15 9.1486,-9.15z" data-paper-data="{&quot;index&quot;:null}" fill="url(#color-2)" stroke="none" stroke-width="0"/></g></g></svg>