<svg version="1.1" xmlns="http://www.w3.org/2000/svg" xmlns:xlink="http://www.w3.org/1999/xlink" width="51.82971" height="32.51634" viewBox="0,0,51.82971,32.51634"><g transform="translate(-273.93563,-211.54478)"><g data-paper-data="{&quot;isPaintingLayer&quot;:true}" fill-rule="nonzero" stroke="none" stroke-width="1" stroke-linecap="butt" stroke-linejoin="miter" stroke-miterlimit="10" stroke-dasharray="" stroke-dashoffset="0" style="mix-blend-mode: normal"><g><path d="M325.76534,238.03935c0,2.3999 -2.19505,4.34577 -4.90099,4.34577h-42.0283c-2.70651,0 -4.90042,-1.94638 -4.90042,-4.34577v-18.91988c0,-2.3999 2.19391,-4.34526 4.90042,-4.34526h42.02773c2.70765,0 4.90099,1.94537 4.90099,4.34526v18.91988z" fill="#800000"/><path d="M323.73517,219.04397v18.91937c0,1.44539 -1.32535,2.6211 -2.95654,2.6211h-42.02773c-1.62949,0 -2.95597,-1.17571 -2.95597,-2.6211v-18.91988c0,-1.44539 1.32648,-2.6211 2.95597,-2.6211h42.02773c1.63119,0 2.95654,1.17621 2.95654,2.6216z" fill="#ff0000"/></g><text transform="translate(283.87456,237.03056) scale(0.51651,0.58588)" font-size="40" xml:space="preserve" fill="#800000" fill-rule="nonzero" stroke="none" stroke-width="1" stroke-linecap="butt" stroke-linejoin="miter" stroke-miterlimit="10" stroke-dasharray="" stroke-dashoffset="0" font-family="Sans Serif" font-weight="normal" text-anchor="start" style="mix-blend-mode: normal"><tspan x="0" dy="0">NO</tspan></text></g></g></svg>